<svg width="28" height="26" viewBox="0 0 28 26" fill="none" xmlns="http://www.w3.org/2000/svg">
<path d="M24.1818 15.7674V19.406H28V21.8317H24.1818V25.4704H21.6364V21.8317H17.8182V19.406H21.6364V15.7674H24.1818ZM14 13.3416C12.6 13.3416 11.4545 14.4332 11.4545 15.7674C11.4545 17.1015 12.6 18.1931 14 18.1931C15.4 18.1931 16.5455 17.1015 16.5455 15.7674C16.5455 14.4332 15.4 13.3416 14 13.3416ZM15.7182 23.0446H5.72727C4.55636 23.0446 3.57636 22.2926 3.28364 21.2738L0.050909 10.0305C-4.74128e-08 9.92131 0 9.81215 0 9.70299C0 9.03591 0.572727 8.49012 1.27273 8.49012H7.36909L12.9436 0.545793C13.1855 0.19406 13.5927 0 14 0C14.4073 0 14.8145 0.19406 15.0564 0.533665L20.6309 8.49012H26.7273C27.4273 8.49012 28 9.03591 28 9.70299L27.9618 10.0305L26.7273 14.324C26.0018 13.9481 25.1873 13.6327 24.3345 13.475L25.0727 10.9159H2.94L5.72727 20.6189H15.2727C15.2727 21.4679 15.4382 22.2805 15.7182 23.0446ZM10.4364 8.49012H17.5636L14 3.39605L10.4364 8.49012Z" fill="black"/>
</svg>
