<svg width="103" height="96" viewBox="0 0 103 96" fill="none" xmlns="http://www.w3.org/2000/svg">
<g filter="url(#filter0_d_121_444)">
<rect x="19" y="19" width="63" height="56" rx="20" fill="white"/>
</g>
<path d="M34.8501 45.7367C34.7888 45.4911 34.7843 45.2347 34.8369 44.9871C34.8895 44.7395 34.9978 44.5071 35.1537 44.3075C35.3095 44.108 35.5087 43.9466 35.7362 43.8356C35.9638 43.7246 36.2136 43.6668 36.4667 43.6667H65.5334C65.7866 43.6668 66.0364 43.7246 66.2639 43.8356C66.4914 43.9466 66.6907 44.108 66.8465 44.3075C67.0023 44.5071 67.1106 44.7395 67.1632 44.9871C67.2158 45.2347 67.2113 45.4911 67.1501 45.7367L64.1317 57.8084C63.9515 58.5295 63.5354 59.1697 62.9495 59.6272C62.3637 60.0847 61.6417 60.3333 60.8984 60.3334H41.1017C40.3584 60.3333 39.6365 60.0847 39.0506 59.6272C38.4648 59.1697 38.0487 58.5295 37.8684 57.8084L34.8501 45.7384V45.7367Z" stroke="#4F4F4F" stroke-width="3.33333" stroke-linejoin="round"/>
<path d="M46 50.3334V53.6667M56 50.3334V53.6667M41 43.6667L47.6667 33.6667M61 43.6667L54.3333 33.6667" stroke="#4F4F4F" stroke-width="3.33333" stroke-linecap="round"/>
<defs>
<filter id="filter0_d_121_444" x="0" y="0" width="103" height="96" filterUnits="userSpaceOnUse" color-interpolation-filters="sRGB">
<feFlood flood-opacity="0" result="BackgroundImageFix"/>
<feColorMatrix in="SourceAlpha" type="matrix" values="0 0 0 0 0 0 0 0 0 0 0 0 0 0 0 0 0 0 127 0" result="hardAlpha"/>
<feOffset dx="1" dy="1"/>
<feGaussianBlur stdDeviation="10"/>
<feComposite in2="hardAlpha" operator="out"/>
<feColorMatrix type="matrix" values="0 0 0 0 0 0 0 0 0 0 0 0 0 0 0 0 0 0 0.05 0"/>
<feBlend mode="normal" in2="BackgroundImageFix" result="effect1_dropShadow_121_444"/>
<feBlend mode="normal" in="SourceGraphic" in2="effect1_dropShadow_121_444" result="shape"/>
</filter>
</defs>
</svg>
