<svg width="27" height="27" viewBox="0 0 27 27" fill="none" xmlns="http://www.w3.org/2000/svg">
<path d="M11.3125 0.375C9.47318 0.374479 7.66343 0.837817 6.05066 1.72216C4.43789 2.60649 3.07419 3.88327 2.08569 5.43438C1.09719 6.9855 0.515824 8.76085 0.395369 10.5962C0.274914 12.4316 0.61926 14.2677 1.39656 15.9347L0.396868 20.9419C0.361743 21.1183 0.370681 21.3007 0.422889 21.4728C0.475097 21.645 0.568963 21.8016 0.69617 21.9288C0.823377 22.056 0.979996 22.1499 1.15215 22.2021C1.32431 22.2543 1.50668 22.2632 1.68312 22.2281L6.68812 21.2284C8.17195 21.9191 9.79187 22.268 11.4285 22.2493C13.0651 22.2306 14.6766 21.8449 16.1443 21.1205C17.612 20.3961 18.8984 19.3516 19.9087 18.064C20.919 16.7763 21.6274 15.2783 21.9817 13.6804C22.3361 12.0825 22.3273 10.4255 21.956 8.83147C21.5848 7.23744 20.8605 5.74704 19.8366 4.47016C18.8127 3.19328 17.5153 2.16247 16.04 1.45371C14.5647 0.744954 12.9492 0.376326 11.3125 0.375V0.375ZM2.56249 11.3125C2.56298 9.40581 3.18625 7.55146 4.33748 6.03156C5.48872 4.51165 7.10492 3.40938 8.94019 2.89244C10.7755 2.3755 12.7294 2.47218 14.5046 3.16778C16.2799 3.86337 17.7794 5.1198 18.775 6.74593C19.7706 8.37206 20.2077 10.2789 20.02 12.1763C19.8322 14.0737 19.0298 15.8579 17.7349 17.2574C16.4399 18.6569 14.7233 19.5951 12.8461 19.9293C10.969 20.2635 9.03399 19.9753 7.33562 19.1088C7.11583 18.9964 6.8645 18.9617 6.62249 19.0103L2.86218 19.7628L3.61468 16.0003C3.66277 15.759 3.62809 15.5085 3.51624 15.2894C2.88707 14.0583 2.56014 12.695 2.56249 11.3125V11.3125ZM15.6875 26.625C13.1876 26.6291 10.7624 25.7733 8.81874 24.2013C10.4382 24.5132 12.1018 24.5184 13.7231 24.2166C15.7282 24.6767 17.8312 24.4173 19.6644 23.4838C19.8842 23.3714 20.1355 23.3367 20.3775 23.3853L24.1378 24.1378L23.3853 20.3753C23.3372 20.134 23.3719 19.8835 23.4837 19.6644C24.4164 17.8309 24.6758 15.7282 24.2166 13.7231C24.5174 12.1032 24.5122 10.4412 24.2012 8.82313C25.7726 10.7655 26.6283 13.1891 26.625 15.6875C26.6263 17.2851 26.2776 18.8635 25.6034 20.3119L26.6031 25.3169C26.6382 25.4933 26.6293 25.6757 26.5771 25.8478C26.5249 26.02 26.431 26.1766 26.3038 26.3038C26.1766 26.431 26.02 26.5249 25.8478 26.5771C25.6757 26.6293 25.4933 26.6382 25.3169 26.6031L20.3097 25.6034C18.8625 26.2786 17.2845 26.6274 15.6875 26.625Z" fill="#828282"/>
</svg>
