<svg width="27" height="27" viewBox="0 0 27 27" fill="none" xmlns="http://www.w3.org/2000/svg">
<path d="M11.3127 0.375C9.47336 0.374479 7.66362 0.837817 6.05085 1.72216C4.43808 2.60649 3.07437 3.88327 2.08587 5.43438C1.09737 6.9855 0.516007 8.76085 0.395552 10.5962C0.275097 12.4316 0.619443 14.2677 1.39674 15.9347L0.397051 20.9419C0.361926 21.1183 0.370865 21.3007 0.423072 21.4728C0.47528 21.645 0.569146 21.8016 0.696353 21.9288C0.82356 22.056 0.98018 22.1499 1.15233 22.2021C1.32449 22.2543 1.50687 22.2632 1.6833 22.2281L6.6883 21.2284C8.17213 21.9191 9.79206 22.268 11.4286 22.2493C13.0652 22.2306 14.6768 21.8449 16.1445 21.1205C17.6121 20.3961 18.8986 19.3516 19.9089 18.064C20.9191 16.7763 21.6276 15.2783 21.9819 13.6804C22.3363 12.0825 22.3275 10.4255 21.9562 8.83147C21.5849 7.23744 20.8607 5.74704 19.8368 4.47016C18.8129 3.19328 17.5155 2.16247 16.0402 1.45371C14.5649 0.744954 12.9494 0.376326 11.3127 0.375V0.375ZM2.56268 11.3125C2.56316 9.40581 3.18643 7.55146 4.33767 6.03156C5.48891 4.51165 7.1051 3.40938 8.94037 2.89244C10.7757 2.3755 12.7296 2.47218 14.5048 3.16778C16.2801 3.86337 17.7796 5.1198 18.7752 6.74593C19.7707 8.37206 20.2079 10.2789 20.0202 12.1763C19.8324 14.0737 19.03 15.8579 17.7351 17.2574C16.4401 18.6569 14.7235 19.5951 12.8463 19.9293C10.9691 20.2635 9.03418 19.9753 7.3358 19.1088C7.11601 18.9964 6.86468 18.9617 6.62268 19.0103L2.86236 19.7628L3.61486 16.0003C3.66295 15.759 3.62827 15.5085 3.51643 15.2894C2.88726 14.0583 2.56032 12.695 2.56268 11.3125V11.3125ZM15.6877 26.625C13.1878 26.6291 10.7626 25.7733 8.81893 24.2013C10.4384 24.5132 12.102 24.5184 13.7233 24.2166C15.7284 24.6767 17.8314 24.4173 19.6646 23.4838C19.8843 23.3714 20.1357 23.3367 20.3777 23.3853L24.138 24.1378L23.3855 20.3753C23.3374 20.134 23.3721 19.8835 23.4839 19.6644C24.4166 17.8309 24.6759 15.7282 24.2167 13.7231C24.5176 12.1032 24.5124 10.4412 24.2014 8.82313C25.7727 10.7655 26.6285 13.1891 26.6252 15.6875C26.6265 17.2851 26.2778 18.8635 25.6036 20.3119L26.6033 25.3169C26.6384 25.4933 26.6295 25.6757 26.5773 25.8478C26.5251 26.02 26.4312 26.1766 26.304 26.3038C26.1768 26.431 26.0202 26.5249 25.848 26.5771C25.6759 26.6293 25.4935 26.6382 25.3171 26.6031L20.3099 25.6034C18.8626 26.2786 17.2847 26.6274 15.6877 26.625Z" fill="#9B51E0"/>
</svg>
