<svg width="28" height="30" viewBox="0 0 28 30" fill="none" xmlns="http://www.w3.org/2000/svg">
<path d="M26.3447 9.0251L17.3554 1.14453C16.5314 0.407478 15.4646 0 14.359 0C13.2534 0 12.1866 0.407478 11.3626 1.14453L2.37335 9.0251C1.89747 9.4507 1.51772 9.9728 1.25939 10.5566C1.00106 11.1405 0.870067 11.7726 0.875142 12.411V25.5054C0.875142 26.6974 1.34868 27.8407 2.19159 28.6836C3.03449 29.5265 4.17772 30 5.36976 30H23.3483C24.5403 30 25.6835 29.5265 26.5264 28.6836C27.3693 27.8407 27.8429 26.6974 27.8429 25.5054V12.3961C27.8458 11.7602 27.7138 11.1309 27.4555 10.5498C27.1973 9.9687 26.8186 9.44903 26.3447 9.0251ZM17.3554 27.0036H11.3626V19.5126C11.3626 19.1152 11.5204 18.7341 11.8014 18.4532C12.0824 18.1722 12.4635 18.0143 12.8608 18.0143H15.8572C16.2546 18.0143 16.6356 18.1722 16.9166 18.4532C17.1976 18.7341 17.3554 19.1152 17.3554 19.5126V27.0036ZM24.8465 25.5054C24.8465 25.9027 24.6886 26.2838 24.4076 26.5648C24.1267 26.8457 23.7456 27.0036 23.3483 27.0036H20.3518V19.5126C20.3518 18.3205 19.8783 17.1773 19.0354 16.3344C18.1925 15.4915 17.0493 15.0179 15.8572 15.0179H12.8608C11.6688 15.0179 10.5255 15.4915 9.68262 16.3344C8.83972 17.1773 8.36618 18.3205 8.36618 19.5126V27.0036H5.36976C4.97241 27.0036 4.59134 26.8457 4.31037 26.5648C4.0294 26.2838 3.87156 25.9027 3.87156 25.5054V12.3961C3.87183 12.1833 3.91739 11.9731 4.00522 11.7794C4.09305 11.5856 4.22114 11.4128 4.38095 11.2724L13.3702 3.40682C13.6436 3.16663 13.9951 3.03417 14.359 3.03417C14.7229 3.03417 15.0744 3.16663 15.3478 3.40682L24.3371 11.2724C24.4969 11.4128 24.625 11.5856 24.7128 11.7794C24.8006 11.9731 24.8462 12.1833 24.8465 12.3961V25.5054Z" fill="#9B51E0"/>
</svg>
