<svg width="79" height="79" viewBox="0 0 79 79" fill="none" xmlns="http://www.w3.org/2000/svg">
<ellipse cx="39.5" cy="39" rx="39.5" ry="39" fill="#EEF7FE"/>
<mask id="mask0_87_711" style="mask-type:alpha" maskUnits="userSpaceOnUse" x="1" y="1" width="77" height="78">
<path d="M77.5778 39.7016C77.5787 44.7836 76.589 49.8161 74.6653 54.5116C72.7416 59.207 69.9217 63.4735 66.3664 67.0674C62.8112 70.6612 58.5903 73.5121 53.9449 75.4571C49.2994 77.4021 44.3204 78.4032 39.2921 78.4032C29.1364 78.4032 19.3966 74.3257 12.2155 67.0677C5.03432 59.8098 1 49.9659 1 39.7016C1 29.4373 5.03432 19.5934 12.2155 12.3354C19.3966 5.07747 29.1364 1 39.2921 1C44.3204 1 49.2994 2.00109 53.9449 3.94611C58.5903 5.89112 62.8112 8.74196 66.3664 12.3358C69.9217 15.9297 72.7416 20.1962 74.6653 24.8916C76.589 29.5871 77.5787 34.6195 77.5778 39.7016Z" fill="#F1F3F6"/>
</mask>
<g mask="url(#mask0_87_711)">
<path d="M70.4436 83.4356H9.69385C9.8044 82.3486 10.3521 78.5695 13.0859 73.7391C16.3321 67.9943 30.8047 68.8121 31.2922 67.9943C31.5032 67.6387 31.6239 66.1911 31.6942 64.6724C31.7796 62.7016 31.7796 60.6089 31.7796 60.6089L40.0712 63.0775L48.3628 60.6089C48.3628 60.6089 48.3628 62.6863 48.4432 64.6724C48.5186 66.1962 48.6342 67.6641 48.8502 68.0248C49.3528 68.8425 63.8053 68.0248 67.0566 73.7695C69.7853 78.5695 70.338 82.3486 70.4436 83.4356Z" fill="#E1A387"/>
<path d="M70.4436 83.4359H9.69385C9.8044 82.3489 10.3521 78.5699 13.0859 73.7394C15.8196 68.9089 26.6037 68.7108 30.1716 68.2842C30.8198 68.2029 31.2269 68.1216 31.3022 67.9946C31.3022 67.9946 39.9205 79.3318 48.8603 67.9946C48.9407 68.1369 49.4533 68.2283 50.2573 68.3197C54.0564 68.7261 64.3831 69.0003 67.0666 73.7394C69.7852 78.5699 70.338 82.3489 70.4436 83.4359Z" fill="#860018"/>
<path d="M50.2473 68.3197C43.212 78.2092 34.8199 72.7895 30.1465 68.2842C30.7947 68.2029 31.2018 68.1216 31.2772 67.9946C31.2772 67.9946 39.8954 79.3318 48.8352 67.9946C48.9307 68.1369 49.4433 68.2283 50.2473 68.3197Z" fill="#6B1524"/>
<path d="M25.8799 43.4918C25.8799 43.4918 22.0356 36.9292 20.4476 42.5521C18.8597 48.175 22.6989 50.8569 25.2165 50.3235C27.7342 49.7902 25.8799 43.4918 25.8799 43.4918Z" fill="#E1A387"/>
<path d="M25.433 44.5632C25.433 44.5632 22.7847 40.4083 21.855 42.0845C21.2892 43.2695 21.0613 44.5904 21.1967 45.899C21.1967 45.899 21.7244 43.5575 23.448 44.8832C23.448 44.8832 21.7897 48.6318 25.1717 47.56C25.1516 47.5752 26.5436 46.4375 25.433 44.5632Z" fill="#CE8D75"/>
<path d="M53.4738 43.4918C53.4738 43.4918 57.3181 36.9292 58.906 42.5521C60.494 48.175 56.6548 50.8569 54.1371 50.3235C51.6195 49.7902 53.4738 43.4918 53.4738 43.4918Z" fill="#E1A387"/>
<path d="M53.5289 45.0002C53.5289 45.0002 56.1772 40.8453 57.1068 42.5215C57.6729 43.7065 57.9025 45.027 57.7701 46.3361C57.7701 46.3361 57.2375 43.9945 55.5138 45.3202C55.5138 45.3202 57.1721 49.0688 53.7902 47.997C53.7902 48.0123 52.4032 46.8745 53.5289 45.0002Z" fill="#CE8D75"/>
<path d="M53.5741 54.2043C53.2826 59.0297 47.8403 62.6005 44.2825 64.1954C42.2441 65.1562 39.9564 65.4372 37.7497 64.998C24.3022 61.0005 24.6842 51.7916 25.2872 49.2062C25.8902 46.6208 25.0661 41.5872 26.644 35.6138C26.8472 34.8408 27.1496 34.098 27.5435 33.4043C29.9506 29.158 35.0813 27.7916 35.0813 27.7916C43.9709 21.9859 50.1921 27.69 52.2424 32.363C52.3786 32.6682 52.4994 32.9801 52.6042 33.2976C54.157 38.1078 53.8756 48.7897 53.5741 54.2043Z" fill="#F2C2AC"/>
<path fill-rule="evenodd" clip-rule="evenodd" d="M49.0424 23.7693C49.0781 23.7603 49.1139 23.7517 49.1497 23.7433C49.4557 23.6673 49.7662 23.6113 50.0793 23.5756C50.3415 23.5783 50.6033 23.597 50.8633 23.6315C51.1396 23.6748 51.4119 23.741 51.6773 23.8296C55.5468 25.1452 55.8533 31.2709 55.3307 36.6042C55.2905 36.9801 55.2503 37.356 55.2051 37.7217C54.9494 39.7709 54.5888 41.8054 54.1246 43.8169C54.078 44.0273 54.0334 44.2125 53.9953 44.37C53.9719 44.4673 53.951 44.554 53.9337 44.6296C53.8784 44.8633 53.8432 44.9902 53.8432 44.9902L53.7477 44.3503V44.2639C53.5417 42.6639 52.7427 40.5966 51.7678 38.4937C50.6293 36.1674 49.3914 33.8928 48.058 31.6762C45.7549 32.4325 42.2834 33.4621 37.8498 34.4556C36.9855 34.6486 36.091 34.8416 35.1513 35.0296C33.8749 35.2869 32.5348 35.5375 31.1311 35.7813C25.5582 36.7312 23.0204 35.0804 21.9098 32.9572C21.8209 32.7922 21.7404 32.6226 21.6686 32.4493C20.6284 29.9096 21.3772 26.928 21.3772 26.928C21.6686 27.5527 22.3119 27.6137 23.2365 27.2835C23.4077 27.2234 23.5754 27.1539 23.739 27.0753C24.9813 26.5223 26.6176 25.4537 28.5099 24.218C31.6926 22.1397 35.5994 19.5885 39.5735 18.2219C40.3606 17.942 41.1916 17.8095 42.0258 17.8308C42.4208 17.845 42.8132 17.9011 43.1966 17.9985C44.4425 18.342 45.5709 19.0256 46.458 19.9743C46.5937 20.1165 46.7294 20.2588 46.86 20.4061C47.6655 21.3479 48.3524 22.3869 48.9053 23.4994C48.9518 23.589 48.9974 23.6791 49.0424 23.7693Z" fill="#A16929"/>
<path d="M25.8696 27.3887C25.7038 27.8966 25.1661 37.8826 25.6787 42.4134L30.4174 29.8522L25.8696 27.3887Z" fill="#A16929"/>
<path d="M46.8703 20.3856C45.6492 21.7825 44.408 23.1539 43.0512 24.4491C39.2973 28.0555 34.9505 31.1844 29.8851 32.5761C27.3725 33.2568 24.4378 33.6834 21.9101 32.9571C21.8212 32.792 21.7407 32.6225 21.6689 32.4491C21.885 32.5152 22.1011 32.566 22.3373 32.6167C26.86 33.5514 31.8852 31.8904 35.7797 29.5691C39.8628 27.0212 43.479 23.7784 46.4683 19.9844C46.604 20.0961 46.7397 20.2383 46.8703 20.3856Z" fill="#C98643"/>
<path d="M43.207 17.9778C40.9155 21.7924 37.9054 25.1549 34.4179 27.334C31.5837 29.1016 28.3877 29.7619 25.1967 28.68C24.4095 28.4331 23.7222 27.9361 23.2368 27.2629C23.408 27.2028 23.5757 27.1332 23.7393 27.0546C24.0362 27.3858 24.3971 27.6521 24.7996 27.8368C26.4862 28.5992 28.3744 28.7778 30.1716 28.3448C33.2269 27.5981 35.8852 25.5308 38.0159 23.2654C39.5536 21.6084 40.9022 19.7819 42.0361 17.8203C42.4308 17.8311 42.8232 17.8839 43.207 17.9778Z" fill="#C98643"/>
<path d="M49.3732 24.4133C47.1648 27.0252 44.7036 29.4074 42.0263 31.5244C40.699 32.5908 39.3041 33.5681 37.8504 34.4502C36.9861 34.6432 36.0916 34.8362 35.1519 35.0241C37.9293 33.7493 40.4928 32.0441 42.75 29.9702C44.9812 27.9826 47.0437 25.8095 48.9159 23.4736C49.0767 23.7886 49.2274 24.1035 49.3732 24.4133Z" fill="#C98643"/>
<path d="M31.2169 38.8847C29.7093 39.8193 28.8098 42.1101 29.7093 43.5882C29.7495 43.6644 29.9053 43.6339 29.8952 43.5476C29.8239 42.8637 29.9062 42.1724 30.1359 41.5251C30.3656 40.8779 30.7368 40.2913 31.2219 39.8092C31.8699 39.2121 32.712 38.876 33.5887 38.8644C34.5938 38.7984 35.036 39.7076 35.825 40.0174C35.9858 40.0834 36.1918 39.9768 36.1365 39.8092C35.5134 37.9095 32.7596 37.94 31.2169 38.8847Z" fill="#390A0A"/>
<path d="M36.5384 43.1513C36.5384 45.6148 35.0309 47.616 33.1916 47.616C31.3524 47.616 29.8499 45.6148 29.8499 43.1513C29.8499 40.6878 31.3574 38.6865 33.1916 38.6865C35.0258 38.6865 36.5384 40.6878 36.5384 43.1513Z" fill="white"/>
<path d="M35.8299 43.2835C35.8299 45.1172 34.6892 46.6054 33.2822 46.6054C31.8751 46.6054 30.7344 45.1172 30.7344 43.2835C30.7344 41.4499 31.8751 39.9565 33.2822 39.9565C34.6892 39.9565 35.8299 41.46 35.8299 43.2835Z" fill="#3D79CA"/>
<path d="M35.4229 43.3341C35.4229 44.8579 34.4882 46.1379 33.3374 46.1379C32.1866 46.1379 31.252 44.8833 31.252 43.3341C31.252 41.7849 32.1866 40.5303 33.3374 40.5303C34.4882 40.5303 35.4229 41.79 35.4229 43.3341Z" fill="#390A0A"/>
<path d="M35.8299 40.9213C35.8299 41.2261 35.2369 41.4699 34.5082 41.4699C33.7796 41.4699 33.1917 41.2261 33.1917 40.9213C33.1917 40.6166 33.7846 40.3677 34.5082 40.3677C35.2319 40.3677 35.8299 40.6115 35.8299 40.9213Z" fill="white"/>
<path d="M48.202 38.8847C49.7096 39.8193 50.6091 42.1101 49.7096 43.5882C49.6694 43.6644 49.5136 43.6339 49.5237 43.5476C49.5949 42.8637 49.5127 42.1724 49.283 41.5251C49.0533 40.8779 48.6821 40.2913 48.197 39.8092C47.5508 39.2125 46.7103 38.8763 45.8351 38.8644C44.8301 38.7984 44.3829 39.7076 43.5939 40.0174C43.4331 40.0834 43.2271 39.9768 43.2824 39.8092C43.9055 37.9095 46.6593 37.94 48.202 38.8847Z" fill="#390A0A"/>
<path d="M49.3276 43.1513C49.3276 45.6148 47.82 47.616 45.9858 47.616C44.1516 47.616 42.644 45.6148 42.644 43.1513C42.644 40.6878 44.1516 38.6865 45.9858 38.6865C47.82 38.6865 49.3276 40.6878 49.3276 43.1513Z" fill="white"/>
<path d="M48.619 43.2835C48.619 45.1172 47.4783 46.6054 46.0712 46.6054C44.6642 46.6054 43.5234 45.1324 43.5234 43.2835C43.5234 41.4346 44.6642 39.9565 46.0662 39.9565C47.4682 39.9565 48.619 41.46 48.619 43.2835Z" fill="#3D79CA"/>
<path d="M48.217 43.3341C48.217 44.8579 47.2823 46.1379 46.1265 46.1379C44.9707 46.1379 44.041 44.8833 44.041 43.3341C44.041 41.7849 44.9757 40.5303 46.1265 40.5303C47.2772 40.5303 48.217 41.79 48.217 43.3341Z" fill="#390A0A"/>
<path d="M48.6193 40.9213C48.6193 41.2261 48.0313 41.4699 47.3027 41.4699C46.574 41.4699 45.9861 41.2261 45.9861 40.9213C45.9861 40.6166 46.574 40.3677 47.3027 40.3677C48.0313 40.3677 48.6193 40.6115 48.6193 40.9213Z" fill="white"/>
<path d="M39.6137 40.9977C39.6137 40.9977 38.6087 39.9818 38.4277 43.5983C38.2468 47.2148 38.4277 50.9938 38.4277 50.9938C38.4277 50.9938 36.0559 49.5919 36.8448 51.5932C37.272 52.67 38.277 53.2237 39.3574 53.5081C39.7499 53.6228 40.1666 53.6216 40.5584 53.5046C40.9502 53.3876 41.3007 53.1597 41.5685 52.8478C41.8499 52.5684 43.3173 51.065 42.855 50.5977C42.6339 50.3691 41.3474 50.9075 41.0208 50.9938C41.0107 50.9938 41.3926 40.2002 39.6137 40.9977Z" fill="#E1A387"/>
<path d="M45.5335 55.6416C45.5335 55.6416 40.8751 63.7127 34.4429 55.9464C34.4429 55.9464 38.1917 54.6664 39.5636 55.8042L40.0661 56.3781C40.0661 56.3781 41.5133 54.575 45.5335 55.6416Z" fill="#CE8D75"/>
<path d="M45.5335 55.6416C45.5335 55.6416 40.8751 63.7127 34.4429 55.9464C34.478 55.9464 40.7646 58.8619 45.5335 55.6416Z" fill="#E1A387"/>
<path d="M37.1618 37.044C37.1618 37.8972 35.0081 37.4162 32.3757 37.4162C29.7434 37.4162 27.5896 37.8972 27.5896 37.044C27.5896 36.1907 29.7386 34.3262 32.3757 34.3262C35.0129 34.3262 37.1618 36.1907 37.1618 37.044Z" fill="#343434"/>
<path d="M50.9882 37.044C50.9882 37.8972 48.8393 37.4162 46.2021 37.4162C43.565 37.4162 41.416 37.8972 41.416 37.044C41.416 36.1907 43.565 34.3262 46.2021 34.3262C48.8393 34.3262 50.9882 36.1907 50.9882 37.044Z" fill="#343434"/>
</g>
</svg>
