<svg width="28" height="27" viewBox="0 0 28 27" fill="none" xmlns="http://www.w3.org/2000/svg">
<path d="M27.065 24.1313L21.965 19.1875C23.6105 17.1494 24.5033 14.6326 24.5 12.0417C24.5 9.73422 23.7962 7.47859 22.4776 5.56002C21.1591 3.64145 19.2849 2.1461 17.0922 1.26308C14.8995 0.380055 12.4867 0.149016 10.1589 0.599177C7.83115 1.04934 5.69295 2.16048 4.01472 3.79209C2.33649 5.42371 1.1936 7.50251 0.730582 9.76562C0.267559 12.0287 0.505199 14.3745 1.41345 16.5063C2.3217 18.6381 3.85977 20.4602 5.83316 21.7421C7.80655 23.0241 10.1266 23.7083 12.5 23.7083C15.165 23.7116 17.7537 22.8435 19.85 21.2438L24.935 26.2021C25.0745 26.3388 25.2404 26.4473 25.4231 26.5213C25.6059 26.5953 25.802 26.6335 26 26.6335C26.198 26.6335 26.3941 26.5953 26.5769 26.5213C26.7597 26.4473 26.9256 26.3388 27.065 26.2021C27.2056 26.0665 27.3172 25.9052 27.3933 25.7275C27.4695 25.5498 27.5087 25.3592 27.5087 25.1667C27.5087 24.9742 27.4695 24.7835 27.3933 24.6058C27.3172 24.4281 27.2056 24.2668 27.065 24.1313V24.1313ZM3.50001 12.0417C3.50001 10.3111 4.02785 8.61936 5.01678 7.18043C6.00571 5.7415 7.41132 4.61999 9.05585 3.95773C10.7004 3.29546 12.51 3.12218 14.2558 3.4598C16.0016 3.79742 17.6053 4.63078 18.864 5.85449C20.1226 7.0782 20.9798 8.6373 21.3271 10.3346C21.6743 12.032 21.4961 13.7913 20.8149 15.3902C20.1337 16.989 18.9802 18.3556 17.5001 19.317C16.0201 20.2785 14.28 20.7917 12.5 20.7917C10.1131 20.7917 7.82387 19.8698 6.13604 18.2289C4.44822 16.5879 3.50001 14.3623 3.50001 12.0417Z" fill="#828282"/>
</svg>
